<svg width="117" height="114" viewBox="0 0 117 114" fill="none" xmlns="http://www.w3.org/2000/svg">
<path d="M58.5133 76.95C52.9306 76.95 47.5766 74.8481 43.6291 71.1068C39.6816 67.3654 37.4639 62.2911 37.4639 57C37.4639 51.7089 39.6816 46.6346 43.6291 42.8932C47.5766 39.1519 52.9306 37.05 58.5133 37.05C64.0959 37.05 69.4499 39.1519 73.3975 42.8932C77.345 46.6346 79.5627 51.7089 79.5627 57C79.5627 62.2911 77.345 67.3654 73.3975 71.1068C69.4499 74.8481 64.0959 76.95 58.5133 76.95ZM103.198 62.529C103.439 60.705 103.619 58.881 103.619 57C103.619 55.119 103.439 53.238 103.198 51.3L115.888 42.009C117.031 41.154 117.331 39.615 116.61 38.361L104.581 18.639C103.86 17.385 102.236 16.872 100.913 17.385L85.9376 23.085C82.8103 20.862 79.5627 18.924 75.7738 17.499L73.5486 2.394C73.308 1.026 72.045 0 70.5415 0H46.4851C44.9815 0 43.7186 1.026 43.478 2.394L41.2528 17.499C37.4639 18.924 34.2163 20.862 31.0889 23.085L16.1138 17.385C14.7907 16.872 13.1669 17.385 12.4452 18.639L0.416968 38.361C-0.364867 39.615 -0.00401926 41.154 1.13866 42.009L13.8284 51.3C13.5879 53.238 13.4074 55.119 13.4074 57C13.4074 58.881 13.5879 60.705 13.8284 62.529L1.13866 71.991C-0.00401926 72.846 -0.364867 74.385 0.416968 75.639L12.4452 95.361C13.1669 96.615 14.7907 97.071 16.1138 96.615L31.0889 90.858C34.2163 93.138 37.4639 95.076 41.2528 96.501L43.478 111.606C43.7186 112.974 44.9815 114 46.4851 114H70.5415C72.045 114 73.308 112.974 73.5486 111.606L75.7738 96.501C79.5627 95.019 82.8103 93.138 85.9376 90.858L100.913 96.615C102.236 97.071 103.86 96.615 104.581 95.361L116.61 75.639C117.331 74.385 117.031 72.846 115.888 71.991L103.198 62.529Z" fill="#000E3D"/>
</svg>
